<svg viewBox="0 0 232 153" fill="none" xmlns="http://www.w3.org/2000/svg">
<path d="M231.874 53.868V107.736H172.228C141.38 107.736 125.423 93.6838 124.356 65.5797C124.294 62.6906 124.232 58.8074 124.232 53.868C124.232 48.9286 124.294 44.9832 124.356 42.0009C124.791 28.4563 129.223 18.0597 137.652 10.811C146.071 3.54168 157.876 -0.0308648 173.005 0.000200848H217.335V23.0509H173.781C167.32 23.0509 162.443 24.6352 159.087 27.7418C155.732 30.8484 153.993 35.7257 153.775 42.3116C153.558 45.1386 153.465 48.9596 153.465 53.6816C153.465 58.4036 153.558 62.2557 153.775 65.238C153.993 72.0103 155.608 76.9498 158.715 79.9942C161.821 83.0386 166.543 84.623 173.036 84.623H202.859V53.8059H231.874V53.868Z" fill="#141E29"/>
<path d="M107.829 53.8678C107.829 58.8072 107.767 62.6904 107.674 65.5795C106.649 93.6939 90.6913 107.746 59.8017 107.736H14.6633V84.6849H59.025C65.4867 84.6849 70.2397 83.1316 73.3463 80.0561C76.4218 76.9806 78.0683 72.0619 78.2857 65.2999C78.4721 62.3176 78.5964 58.4655 78.5964 53.7435C78.5964 49.0216 78.4721 45.2315 78.2857 42.3735C78.0683 35.7876 76.2665 30.9414 72.9735 27.8037C69.6495 24.6661 64.71 23.1128 58.2795 23.1128H29.1399V53.9299H0.15567V0H59.025C74.2161 0 86.0107 3.61397 94.4088 10.8419C102.859 18.0802 107.239 28.4872 107.674 42.0629C107.767 44.983 107.829 48.9594 107.829 53.8678Z" fill="#141E29"/>
<path d="M0.311027 152.162C0.122455 151.983 0.0110063 151.738 0.000370362 151.479V125.881C-0.00324504 125.749 0.0196401 125.618 0.0676681 125.495C0.115696 125.372 0.187888 125.26 0.279961 125.166C0.372597 125.07 0.483448 124.993 0.606094 124.939C0.728741 124.886 0.860747 124.857 0.99447 124.855H11.3704C15.2847 124.855 18.298 125.787 20.4416 127.651C22.5851 129.515 23.7345 132.156 23.8277 135.635C23.8277 136.412 23.8588 137.406 23.8588 138.68C23.8588 139.953 23.8588 140.947 23.8277 141.693C23.5481 148.9 19.4578 152.504 11.5568 152.504H0.99447C0.862677 152.499 0.733395 152.467 0.615448 152.408C0.497501 152.349 0.393665 152.265 0.311027 152.162ZM11.3704 146.539C13.0169 146.539 14.2595 146.135 15.0361 145.359C15.8128 144.582 16.2477 143.308 16.3098 141.569C16.372 140.823 16.403 139.829 16.403 138.618C16.403 137.406 16.372 136.443 16.3098 135.697C16.2477 134.02 15.8128 132.777 14.9429 131.969C14.0731 131.162 12.7994 130.758 11.184 130.758H7.45612V146.539H11.3704Z" fill="#141E29"/>
<path d="M30.3515 152.158C30.2565 152.073 30.182 151.967 30.1336 151.849C30.0852 151.73 30.0641 151.603 30.0719 151.475V125.877C30.0683 125.745 30.0912 125.614 30.1392 125.491C30.1872 125.369 30.2594 125.257 30.3515 125.162C30.4441 125.066 30.555 124.989 30.6776 124.935C30.8003 124.882 30.9323 124.854 31.066 124.852H49.6743C49.807 124.849 49.9388 124.873 50.0622 124.922C50.1855 124.971 50.2981 125.043 50.3933 125.136C50.4886 125.228 50.5647 125.338 50.6172 125.46C50.6697 125.582 50.6977 125.713 50.6995 125.846V129.791C50.7045 129.926 50.6791 130.06 50.6254 130.184C50.5716 130.307 50.4908 130.417 50.3888 130.506C50.1952 130.687 49.9395 130.787 49.6743 130.785H37.217V135.787H48.8045C48.9371 135.785 49.0689 135.808 49.1923 135.857C49.3157 135.906 49.4283 135.979 49.5235 136.071C49.6187 136.163 49.6948 136.274 49.7474 136.395C49.7999 136.517 49.8278 136.648 49.8296 136.781V140.416C49.8319 140.548 49.808 140.68 49.7593 140.803C49.7105 140.927 49.6378 141.039 49.5455 141.135C49.4531 141.23 49.3429 141.306 49.221 141.358C49.0992 141.411 48.9682 141.439 48.8355 141.441H37.217V146.567H50.016C50.1487 146.564 50.2805 146.588 50.4039 146.637C50.5273 146.686 50.6398 146.758 50.7351 146.851C50.8303 146.943 50.9064 147.053 50.9589 147.175C51.0114 147.297 51.0394 147.428 51.0412 147.561V151.506C51.0462 151.641 51.0209 151.775 50.9671 151.899C50.9133 152.022 50.8325 152.132 50.7305 152.221C50.5369 152.402 50.2812 152.502 50.016 152.5H31.066C30.7921 152.485 30.5354 152.362 30.3515 152.158Z" fill="#141E29"/>
<path d="M57.5029 152.158C57.3143 151.98 57.2028 151.735 57.1922 151.475V125.877C57.1886 125.745 57.2115 125.614 57.2595 125.491C57.3075 125.369 57.3797 125.257 57.4718 125.162C57.5644 125.066 57.6753 124.989 57.7979 124.935C57.9206 124.882 58.0526 124.854 58.1863 124.852H76.7946C76.9273 124.849 77.0591 124.873 77.1825 124.922C77.3059 124.971 77.4184 125.043 77.5137 125.136C77.6089 125.228 77.685 125.338 77.7375 125.46C77.79 125.582 77.818 125.713 77.8198 125.846V129.791C77.8248 129.926 77.7994 130.06 77.7457 130.184C77.6919 130.307 77.6111 130.417 77.5091 130.506C77.3155 130.687 77.0598 130.787 76.7946 130.785H64.3684V135.787H75.9558C76.0885 135.785 76.2203 135.808 76.3437 135.857C76.4671 135.906 76.5796 135.979 76.6749 136.071C76.7701 136.163 76.8462 136.274 76.8987 136.395C76.9513 136.517 76.9792 136.648 76.981 136.781V140.416C76.9833 140.548 76.9594 140.68 76.9106 140.803C76.8619 140.927 76.7892 141.039 76.6969 141.135C76.6045 141.23 76.4942 141.306 76.3724 141.358C76.2506 141.411 76.1196 141.439 75.9869 141.441H64.3684V146.567H77.1363C77.269 146.564 77.4008 146.588 77.5242 146.637C77.6476 146.686 77.7601 146.758 77.8554 146.851C77.9506 146.943 78.0267 147.053 78.0792 147.175C78.1318 147.297 78.1597 147.428 78.1615 147.561V151.506C78.1651 151.638 78.1422 151.769 78.0942 151.892C78.0462 152.014 77.974 152.126 77.8819 152.221C77.6793 152.407 77.4118 152.508 77.1363 152.5H58.1863C57.9233 152.477 57.6788 152.355 57.5029 152.158Z" fill="#141E29"/>
<path d="M84.6542 152.162C84.4656 151.983 84.3542 151.738 84.3435 151.479V125.881C84.3399 125.749 84.3628 125.618 84.4108 125.495C84.4589 125.372 84.5311 125.26 84.6231 125.166C84.7158 125.07 84.8266 124.993 84.9493 124.939C85.0719 124.886 85.2039 124.857 85.3376 124.855H96.5213C99.9385 124.855 102.61 125.632 104.567 127.185C106.524 128.739 107.487 131.006 107.487 134.02C107.487 137.033 106.524 139.27 104.567 140.761C102.61 142.252 99.9385 142.998 96.5213 142.998H92.0168V151.51C92.0174 151.636 91.993 151.762 91.9451 151.879C91.8971 151.997 91.8264 152.103 91.7372 152.193C91.6445 152.29 91.5337 152.367 91.411 152.42C91.2884 152.473 91.1564 152.502 91.0227 152.504H85.3376C85.0746 152.481 84.8302 152.359 84.6542 152.162ZM96.3038 137.313C97.2291 137.37 98.141 137.07 98.8512 136.474C99.1755 136.144 99.4263 135.75 99.5869 135.316C99.7476 134.882 99.8145 134.419 99.7832 133.958C99.8253 133.053 99.5259 132.166 98.9444 131.472C98.6048 131.135 98.1948 130.876 97.7437 130.715C97.2927 130.554 96.8116 130.494 96.3349 130.54H91.9236V137.313H96.3038Z" fill="#141E29"/>
<path d="M115.937 150.079C113.794 148.215 112.644 145.574 112.52 142.126C112.489 141.38 112.489 140.2 112.489 138.522C112.489 136.876 112.489 135.664 112.52 134.887C112.613 131.563 113.763 129.016 115.968 127.183C118.174 125.35 121.156 124.449 124.915 124.449C127.18 124.399 129.432 124.812 131.532 125.661C133.207 126.321 134.684 127.401 135.819 128.799C136.74 129.905 137.284 131.276 137.373 132.713C137.368 132.942 137.274 133.16 137.112 133.322C136.95 133.485 136.732 133.578 136.503 133.583H130.383C130.169 133.59 129.956 133.547 129.762 133.458C129.605 133.348 129.468 133.211 129.358 133.055C128.992 132.19 128.362 131.464 127.559 130.978C126.756 130.493 125.82 130.274 124.884 130.352C121.84 130.352 120.255 131.936 120.162 135.074C120.131 135.819 120.131 136.938 120.131 138.46C120.131 139.982 120.131 141.132 120.162 141.877C120.255 145.232 121.871 146.879 124.946 146.879C126.256 146.944 127.546 146.536 128.581 145.729C129.482 144.984 129.917 143.803 129.917 142.25V141.535H126.406C126.143 141.542 125.888 141.444 125.697 141.264C125.505 141.084 125.392 140.835 125.381 140.572V137.435C125.375 137.172 125.473 136.917 125.653 136.725C125.833 136.533 126.081 136.42 126.344 136.41H136.441C136.573 136.407 136.705 136.431 136.828 136.48C136.952 136.529 137.064 136.601 137.16 136.694C137.255 136.786 137.331 136.896 137.384 137.018C137.436 137.14 137.464 137.271 137.466 137.404V142.001C137.519 144.037 136.98 146.045 135.912 147.78C134.844 149.432 133.309 150.73 131.501 151.508C129.415 152.409 127.156 152.843 124.884 152.781C121.094 152.874 118.112 151.942 115.937 150.079Z" fill="#141E29"/>
<path d="M143.959 152.162C143.864 152.077 143.789 151.971 143.741 151.852C143.692 151.734 143.671 151.606 143.679 151.479V125.881C143.675 125.749 143.698 125.618 143.746 125.495C143.794 125.372 143.866 125.26 143.959 125.166C144.051 125.07 144.162 124.993 144.285 124.939C144.407 124.886 144.539 124.857 144.673 124.855H155.515C158.994 124.855 161.697 125.632 163.654 127.216C165.611 128.801 166.605 131.006 166.605 133.896C166.656 135.551 166.212 137.184 165.332 138.586C164.46 139.898 163.231 140.933 161.79 141.569L167.102 151.199C167.176 151.333 167.219 151.482 167.227 151.634C167.225 151.739 167.203 151.843 167.16 151.939C167.117 152.035 167.055 152.122 166.978 152.193C166.905 152.277 166.814 152.342 166.712 152.385C166.609 152.428 166.499 152.448 166.388 152.442H160.858C160.516 152.456 160.179 152.362 159.894 152.172C159.609 151.982 159.392 151.707 159.274 151.386L154.925 142.811H151.135V151.448C151.14 151.582 151.114 151.717 151.061 151.84C151.007 151.964 150.926 152.074 150.824 152.162C150.63 152.343 150.375 152.443 150.11 152.442H144.673C144.54 152.46 144.405 152.444 144.28 152.395C144.154 152.346 144.044 152.266 143.959 152.162ZM155.453 137.033C156.387 137.086 157.307 136.787 158.031 136.194C158.339 135.887 158.576 135.517 158.726 135.11C158.876 134.702 158.936 134.266 158.901 133.833C158.946 132.933 158.634 132.05 158.031 131.379C157.685 131.063 157.278 130.819 156.834 130.665C156.391 130.51 155.921 130.446 155.453 130.478H151.135V136.971L155.453 137.033Z" fill="#141E29"/>
<path d="M171.855 152.221C171.778 152.149 171.717 152.063 171.674 151.967C171.631 151.871 171.608 151.767 171.607 151.662C171.6 151.547 171.611 151.432 171.638 151.32L180.833 126.033C180.928 125.69 181.137 125.389 181.424 125.181C181.712 124.972 182.063 124.867 182.418 124.883H188.569C188.926 124.856 189.282 124.957 189.572 125.167C189.862 125.378 190.068 125.684 190.153 126.033L199.349 151.32C199.373 151.432 199.383 151.547 199.38 151.662C199.381 151.767 199.36 151.872 199.317 151.969C199.274 152.065 199.211 152.151 199.131 152.221C199.06 152.298 198.973 152.36 198.877 152.403C198.781 152.445 198.677 152.468 198.572 152.469H193.446C193.16 152.486 192.876 152.41 192.635 152.254C192.395 152.097 192.211 151.868 192.11 151.6L190.681 147.779H180.305L178.876 151.6C178.776 151.868 178.592 152.097 178.351 152.254C178.111 152.41 177.827 152.486 177.54 152.469H172.384C172.182 152.46 171.992 152.37 171.855 152.221ZM181.983 141.845H189.004L185.493 131.78L181.983 141.845Z" fill="#141E29"/>
<path d="M204.754 152.192C204.657 152.099 204.58 151.988 204.527 151.866C204.474 151.743 204.445 151.611 204.443 151.477V125.879C204.441 125.747 204.465 125.615 204.514 125.492C204.562 125.368 204.635 125.256 204.727 125.16C204.82 125.065 204.93 124.989 205.052 124.936C205.174 124.884 205.305 124.856 205.437 124.854H209.942C210.24 124.836 210.537 124.91 210.793 125.065C211.048 125.221 211.25 125.451 211.371 125.724L218.174 137.871L225.009 125.724C225.13 125.451 225.332 125.221 225.587 125.065C225.843 124.91 226.139 124.836 226.438 124.854H230.911C231.044 124.852 231.176 124.876 231.299 124.925C231.422 124.973 231.535 125.046 231.63 125.138C231.725 125.231 231.802 125.341 231.854 125.463C231.907 125.585 231.935 125.716 231.936 125.848V151.477C231.94 151.609 231.917 151.74 231.869 151.863C231.821 151.986 231.749 152.098 231.657 152.192C231.463 152.373 231.207 152.473 230.942 152.472H225.847C225.586 152.465 225.337 152.358 225.152 152.173C224.967 151.988 224.86 151.739 224.853 151.477V137.125L220.597 144.923C220.479 145.194 220.284 145.425 220.035 145.585C219.786 145.745 219.495 145.828 219.199 145.823H217.056C216.765 145.807 216.483 145.716 216.238 145.558C215.993 145.4 215.793 145.181 215.658 144.923L211.433 137.125V151.477C211.438 151.612 211.413 151.746 211.359 151.87C211.305 151.994 211.224 152.104 211.122 152.192C210.929 152.373 210.673 152.473 210.408 152.472H205.437C205.183 152.467 204.939 152.367 204.754 152.192Z" fill="#141E29"/>
</svg>
